<?xml version="1.0" encoding="UTF-8"?>
<svg version="1.1" xmlns="http://www.w3.org/2000/svg" width="367" height="98">
<path d="M0 0 C121.11 0 242.22 0 367 0 C367 32.34 367 64.68 367 98 C245.89 98 124.78 98 0 98 C0 65.66 0 33.32 0 0 Z " fill="#2A2A2A" transform="translate(0,0)"/>
<path d="M0 0 C113.19 0 226.38 0 343 0 C343 32.34 343 64.68 343 98 C233.44 98 123.88 98 11 98 C11 97.34 11 96.68 11 96 C119.9 96 228.8 96 341 96 C341 64.98 341 33.96 341 2 C228.47 2 115.94 2 0 2 C0 1.34 0 0.68 0 0 Z " fill="#EC3D92" transform="translate(24,0)"/>
<path d="M0 0 C5.03049028 2.86585507 8.4326611 7.03459207 10.6875 12.375 C11.67293809 19.1126465 10.71176887 24.83701532 6.6875 30.375 C1.95348873 35.34385778 -2.24586811 36.57154178 -9 36.8125 C-14.83612496 36.75829451 -18.42444999 36.18312318 -22.7578125 32.203125 C-27.27567777 26.89066031 -29.07413272 21.84518626 -28.76171875 14.83203125 C-27.50131975 7.93819673 -22.81184969 3.32018564 -17.3125 -0.625 C-11.58405171 -2.53448276 -5.53687495 -2.53685715 0 0 Z " fill="#FAFAFA" transform="translate(306.3125,31.625)"/>
<path d="M0 0 C0.99 0 1.98 0 3 0 C3 9.24 3 18.48 3 28 C1.68 27.67 0.36 27.34 -1 27 C-1.33 27.33 -1.66 27.66 -2 28 C-5.00349696 28.35040798 -7.09241298 28.56293508 -10 28 C-13.08003426 25.43330478 -14.61422513 23.90290871 -15.40625 19.99609375 C-15.60940028 15.53525216 -14.74381693 12.48253687 -12 9 C-9.01405576 7.50702788 -6.29146376 7.88244772 -3 8 C-2.34 8.33 -1.68 8.66 -1 9 C-0.67 6.03 -0.34 3.06 0 0 Z " fill="#F1F1F1" transform="translate(254,35)"/>
<path d="M0 0 C7.92 0 15.84 0 24 0 C24 0.66 24 1.32 24 2 C16.74 2 9.48 2 2 2 C2 33.02 2 64.04 2 96 C12.89 96 23.78 96 35 96 C35 96.66 35 97.32 35 98 C23.45 98 11.9 98 0 98 C0 65.66 0 33.32 0 0 Z " fill="#11E9E8" transform="translate(0,0)"/>
<path d="M0 0 C3.5 1.6875 3.5 1.6875 6 4 C6.875 6.75 6.875 6.75 7 9 C6.01 9 5.02 9 4 9 C3.62875 8.360625 3.2575 7.72125 2.875 7.0625 C0.26690436 4.1935948 -2.01539892 4.19250099 -5.74609375 3.6875 C-8.1510867 3.84180907 -8.1510867 3.84180907 -10.25390625 5.625 C-12.44640085 8.60718505 -12.53673095 10.32690546 -12.5 14 C-12.5103125 15.03125 -12.520625 16.0625 -12.53125 17.125 C-11.86438193 20.73393309 -11.00366266 21.9113604 -8 24 C-4.95559865 24.48195275 -4.95559865 24.48195275 -1.75 24.25 C-0.13351563 24.19585937 -0.13351563 24.19585937 1.515625 24.140625 C2.33546875 24.09421875 3.1553125 24.0478125 4 24 C4 21.69 4 19.38 4 17 C1.03 17 -1.94 17 -5 17 C-4.67 15.68 -4.34 14.36 -4 13 C-0.04 13 3.92 13 8 13 C8.48828125 22.08203125 8.48828125 22.08203125 8 25 C4.52785756 28.0167795 1.50487895 28.40947611 -3 28.375 C-4.010625 28.38273437 -5.02125 28.39046875 -6.0625 28.3984375 C-9.41557586 27.943632 -11.28304797 26.98674153 -14 25 C-17.51333065 20.03287735 -17.87114662 14.88741945 -17 9 C-13.03748054 1.21647963 -8.55268656 -1.3317332 0 0 Z " fill="#E4E4E4" transform="translate(66,35)"/>
<path d="M0 0 C2.08984375 0.484375 2.08984375 0.484375 4.58984375 2.609375 C6.08984375 5.484375 6.08984375 5.484375 7.08984375 11.484375 C2.13984375 11.484375 -2.81015625 11.484375 -7.91015625 11.484375 C-7.25015625 13.134375 -6.59015625 14.784375 -5.91015625 16.484375 C-2.49372866 16.73453373 -2.49372866 16.73453373 1.08984375 16.484375 C1.74984375 15.494375 2.40984375 14.504375 3.08984375 13.484375 C4.07984375 13.484375 5.06984375 13.484375 6.08984375 13.484375 C5.52338002 16.76986464 4.6991489 18.39222943 2.08984375 20.484375 C-0.95596448 21.10699878 -3.84949535 20.99909736 -6.91015625 20.484375 C-9.41176443 18.60816887 -10.52961277 17.24546197 -11.91015625 14.484375 C-12.55707385 9.7803599 -12.54849302 6.49335893 -9.97265625 2.421875 C-6.39352377 0.15752588 -4.17156594 -0.24987749 0 0 Z " fill="#DEDEDE" transform="translate(89.91015625,42.515625)"/>
<path d="M0 0 C2.08984375 0.484375 2.08984375 0.484375 4.58984375 2.609375 C6.08984375 5.484375 6.08984375 5.484375 7.08984375 11.484375 C1.80984375 11.484375 -3.47015625 11.484375 -8.91015625 11.484375 C-7.92015625 13.134375 -6.93015625 14.784375 -5.91015625 16.484375 C-2.36765574 17.15114378 -2.36765574 17.15114378 1.08984375 16.484375 C1.74984375 15.494375 2.40984375 14.504375 3.08984375 13.484375 C4.07984375 13.484375 5.06984375 13.484375 6.08984375 13.484375 C5.52338002 16.76986464 4.6991489 18.39222943 2.08984375 20.484375 C-0.95596448 21.10699878 -3.84949535 20.99909736 -6.91015625 20.484375 C-9.41176443 18.60816887 -10.52961277 17.24546197 -11.91015625 14.484375 C-12.55707385 9.7803599 -12.54849302 6.49335893 -9.97265625 2.421875 C-6.39352377 0.15752588 -4.17156594 -0.24987749 0 0 Z " fill="#E0E0E0" transform="translate(228.91015625,42.515625)"/>
<path d="M0 0 C2.64520572 1.39221353 3.93026358 2.72328994 6 5 C6 6.32 6 7.64 6 9 C5.01 9 4.02 9 3 9 C2.7628125 8.35546875 2.525625 7.7109375 2.28125 7.046875 C1.19360099 4.80440731 1.19360099 4.80440731 -1.09375 4.390625 C-2.28484375 4.32101563 -2.28484375 4.32101563 -3.5 4.25 C-4.69109375 4.16492187 -4.69109375 4.16492187 -5.90625 4.078125 C-7.27013267 4.02723386 -8.6351682 4 -10 4 C-10 5.98 -10 7.96 -10 10 C-9.33613281 10.18175781 -8.67226562 10.36351562 -7.98828125 10.55078125 C-2.22712931 12.1908172 2.67174555 13.67174555 7 18 C6.92977336 21.86246512 6.85195271 24.14804729 4.0625 26.9375 C-0.35467558 28.46998949 -4.37695962 28.67561674 -9 28 C-12.0625 26.375 -12.0625 26.375 -14 24 C-14.8125 20.75 -14.8125 20.75 -15 18 C-13.1875 18.1875 -13.1875 18.1875 -11 19 C-10.608125 19.845625 -10.21625 20.69125 -9.8125 21.5625 C-8.28211457 24.20767807 -8.28211457 24.20767807 -5.84765625 24.36328125 C-3.52342808 24.37429655 -1.3022992 24.32103774 1 24 C2.29633621 22.93354885 2.29633621 22.93354885 2.0625 20.4375 C2.041875 19.633125 2.02125 18.82875 2 18 C1.18015625 17.75765625 0.3603125 17.5153125 -0.484375 17.265625 C-2.10085937 16.76289062 -2.10085937 16.76289062 -3.75 16.25 C-4.81734375 15.92515625 -5.8846875 15.6003125 -6.984375 15.265625 C-10.17947413 13.92467666 -11.84960923 12.69440371 -14 10 C-14.4669578 6.73129539 -14.65475278 4.90418241 -12.6875 2.1875 C-8.90164011 -0.47662362 -4.46057456 -0.75602959 0 0 Z " fill="#E8E8E8" transform="translate(142,35)"/>
<path d="M0 0 C0.77085937 -0.03738281 1.54171875 -0.07476562 2.3359375 -0.11328125 C5.66109211 0.5052202 6.70408595 1.53543195 8.625 4.3125 C8.9156124 7.20699949 9.00686045 9.69199935 8.875 12.5625 C8.85695312 13.30757812 8.83890625 14.05265625 8.8203125 14.8203125 C8.77335649 16.65159701 8.70161652 18.48221649 8.625 20.3125 C7.635 20.3125 6.645 20.3125 5.625 20.3125 C5.295 19.6525 4.965 18.9925 4.625 18.3125 C3.635 18.9725 2.645 19.6325 1.625 20.3125 C-1.13520996 20.68417184 -3.56352476 20.49100636 -6.375 20.3125 C-8.375 18.3125 -8.375 18.3125 -8.8125 14.875 C-8.375 11.3125 -8.375 11.3125 -6.4375 9.375 C-2.34609522 7.95553304 1.3386557 8.0603621 5.625 8.3125 C5.295 6.6625 4.965 5.0125 4.625 3.3125 C-0.11040233 2.8015367 -0.11040233 2.8015367 -4.125 4.8125 C-4.5375 5.3075 -4.95 5.8025 -5.375 6.3125 C-6.365 6.3125 -7.355 6.3125 -8.375 6.3125 C-6.53170435 1.17760497 -5.42829302 0.17132486 0 0 Z " fill="#F0F0F0" transform="translate(175.375,42.6875)"/>
<path d="M0 0 C2.99220268 1.36370299 5.29026529 2.94908083 7.75 5.125 C8.67039062 5.93324219 8.67039062 5.93324219 9.609375 6.7578125 C10.06828125 7.16773438 10.5271875 7.57765625 11 8 C9.55661511 11.415759 7.75105832 13.36026263 4.9375 15.75 C4.22464844 16.36359375 3.51179688 16.9771875 2.77734375 17.609375 C1 19 1 19 0 19 C0 17.02 0 15.04 0 13 C-3.3 13 -6.6 13 -10 13 C-10 10.69 -10 8.38 -10 6 C-6.7 6 -3.4 6 0 6 C0 4.02 0 2.04 0 0 Z " fill="#262727" transform="translate(297,40)"/>
<path d="M0 0 C2.9375 0.875 2.9375 0.875 4.9375 3.875 C5.203125 5.8125 5.203125 5.8125 5.1875 7.875 C5.19265625 8.555625 5.1978125 9.23625 5.203125 9.9375 C4.9375 11.875 4.9375 11.875 2.9375 14.875 C-0.5625 15.1875 -0.5625 15.1875 -4.0625 14.875 C-6.57262963 12.36487037 -6.35971609 11.40694763 -6.375 7.9375 C-6.39175781 7.06222656 -6.40851563 6.18695313 -6.42578125 5.28515625 C-6.0625 2.875 -6.0625 2.875 -4.734375 1.05078125 C-3.0625 -0.125 -3.0625 -0.125 0 0 Z " fill="#272727" transform="translate(249.0625,45.125)"/>
<path d="M0 0 C0.66 0 1.32 0 2 0 C2 1.98 2 3.96 2 6 C3.65 6 5.3 6 7 6 C7 6.99 7 7.98 7 9 C5.35 9 3.7 9 2 9 C2.33 13.29 2.66 17.58 3 22 C4.32 22.33 5.64 22.66 7 23 C7 23.99 7 24.98 7 26 C4.125 26.125 4.125 26.125 1 26 C-1 24 -1 24 -1.1953125 20.5234375 C-1.18201493 19.14049032 -1.15816232 17.75761346 -1.125 16.375 C-1.11597656 15.66859375 -1.10695312 14.9621875 -1.09765625 14.234375 C-1.07407603 12.48943902 -1.03820461 10.74467705 -1 9 C-2.32 9 -3.64 9 -5 9 C-5 8.01 -5 7.02 -5 6 C-3.68 6 -2.36 6 -1 6 C-1.020625 5.195625 -1.04125 4.39125 -1.0625 3.5625 C-1 1 -1 1 0 0 Z " fill="#EFEFEF" transform="translate(207,37)"/>
<path d="M0 0 C0.66 0 1.32 0 2 0 C2 1.98 2 3.96 2 6 C3.65 6 5.3 6 7 6 C7 6.99 7 7.98 7 9 C5.35 9 3.7 9 2 9 C2.33 13.29 2.66 17.58 3 22 C4.32 22.33 5.64 22.66 7 23 C7 23.99 7 24.98 7 26 C4.125 26.125 4.125 26.125 1 26 C-1 24 -1 24 -1.1953125 20.5234375 C-1.18201493 19.14049032 -1.15816232 17.75761346 -1.125 16.375 C-1.11597656 15.66859375 -1.10695312 14.9621875 -1.09765625 14.234375 C-1.07407603 12.48943902 -1.03820461 10.74467705 -1 9 C-2.32 9 -3.64 9 -5 9 C-5 8.01 -5 7.02 -5 6 C-3.68 6 -2.36 6 -1 6 C-1.020625 5.195625 -1.04125 4.39125 -1.0625 3.5625 C-1 1 -1 1 0 0 Z " fill="#E8E8E8" transform="translate(156,37)"/>
<path d="M0 0 C0.66 0 1.32 0 2 0 C2 1.98 2 3.96 2 6 C3.65 6 5.3 6 7 6 C7 6.99 7 7.98 7 9 C5.35 9 3.7 9 2 9 C2.33 13.29 2.66 17.58 3 22 C4.32 22.33 5.64 22.66 7 23 C7 23.99 7 24.98 7 26 C4.125 26.125 4.125 26.125 1 26 C-1 24 -1 24 -1.1953125 20.5234375 C-1.18201493 19.14049032 -1.15816232 17.75761346 -1.125 16.375 C-1.11597656 15.66859375 -1.10695313 14.9621875 -1.09765625 14.234375 C-1.07407603 12.48943902 -1.03820461 10.74467705 -1 9 C-2.32 9 -3.64 9 -5 9 C-5 8.01 -5 7.02 -5 6 C-3.68 6 -2.36 6 -1 6 C-1.020625 5.195625 -1.04125 4.39125 -1.0625 3.5625 C-1 1 -1 1 0 0 Z " fill="#EFEFEF" transform="translate(104,37)"/>
<path d="M0 0 C3.96 0 7.92 0 12 0 C12.29296875 9.1796875 12.29296875 9.1796875 12 12 C8.77208445 14.1519437 7.71599191 14.20086443 4 14 C4.33 13.01 4.66 12.02 5 11 C5.99 11 6.98 11 8 11 C8 8.69 8 6.38 8 4 C5.03 4 2.06 4 -1 4 C-0.67 2.68 -0.34 1.36 0 0 Z " fill="#D4D4D4" transform="translate(62,48)"/>
<path d="M0 0 C0.99 0 1.98 0 3 0 C3.33 0.66 3.66 1.32 4 2 C4.66 1.34 5.32 0.68 6 0 C9.125 -0.125 9.125 -0.125 12 0 C12 0.99 12 1.98 12 3 C10.2984375 3.433125 10.2984375 3.433125 8.5625 3.875 C7.386875 4.24625 6.21125 4.6175 5 5 C3.58365167 7.83269666 3.6536995 10.47466438 3.4375 13.625 C3.35371094 14.81351563 3.26992187 16.00203125 3.18359375 17.2265625 C3.12300781 18.14179687 3.06242188 19.05703125 3 20 C2.01 20 1.02 20 0 20 C0 13.4 0 6.8 0 0 Z " fill="#EEEEEE" transform="translate(189,43)"/>
<path d="M0 0 C0.66 0 1.32 0 2 0 C2 8.91 2 17.82 2 27 C1.34 27 0.68 27 0 27 C-2.53568856 18.48733127 -0.957698 8.68768901 0 0 Z " fill="#F9F9F9" transform="translate(255,36)"/>
<path d="M0 0 C0.99 0.33 1.98 0.66 3 1 C2.34 1 1.68 1 1 1 C1.02320313 1.77085938 1.04640625 2.54171875 1.0703125 3.3359375 C1.09738281 4.84027344 1.09738281 4.84027344 1.125 6.375 C1.14820313 7.37273438 1.17140625 8.37046875 1.1953125 9.3984375 C1 12 1 12 -1 14 C-1.391875 13.484375 -1.78375 12.96875 -2.1875 12.4375 C-3.96051063 10.69035532 -3.96051063 10.69035532 -6.625 11.25 C-8.9312407 11.77745645 -8.9312407 11.77745645 -10 13 C-10.23192865 14.51469448 -10.41215238 16.03754562 -10.5625 17.5625 C-10.64628906 18.38878906 -10.73007813 19.21507813 -10.81640625 20.06640625 C-10.87699219 20.70449219 -10.93757812 21.34257813 -11 22 C-11.33 22 -11.66 22 -12 22 C-12.34179688 18.97265625 -12.34179688 18.97265625 -12.68359375 15.9453125 C-12.91292961 13.92595684 -12.91292961 13.92595684 -14 12 C-12.4375 10 -12.4375 10 -10 8 C-4.02941176 7.48529412 -4.02941176 7.48529412 -1 9 C-0.67 6.03 -0.34 3.06 0 0 Z " fill="#E3E3E3" transform="translate(254,35)"/>
<path d="M0 0 C1.8125 0.1875 1.8125 0.1875 4 1 C4.5878125 2.2375 4.5878125 2.2375 5.1875 3.5 C6.72160348 6.17872327 6.72160348 6.17872327 9.1875 6.55078125 C11.4642027 6.78912356 13.71186625 6.94723381 16 7 C15.67 7.99 15.34 8.98 15 10 C10.46640967 10.35557571 7.07244753 10.58090908 3 8.375 C0.62526793 5.55500567 0.24789282 3.63576129 0 0 Z " fill="#E2E2E2" transform="translate(127,53)"/>
<path d="M0 0 C2.01822917 0.06510417 4.03645833 0.13020833 6.0546875 0.1953125 C5.7421875 2.5703125 5.7421875 2.5703125 5.0546875 5.1953125 C1.82677195 7.3472562 0.77067941 7.39617693 -2.9453125 7.1953125 C-3.5703125 4.8203125 -3.5703125 4.8203125 -3.9453125 2.1953125 C-1.9453125 0.1953125 -1.9453125 0.1953125 0 0 Z " fill="#343434" transform="translate(173.9453125,53.8046875)"/>
<path d="M0 0 C2.5625 0.3125 2.5625 0.3125 4.375 1.625 C5.5625 3.3125 5.5625 3.3125 5.5625 6.3125 C1.9325 6.3125 -1.6975 6.3125 -5.4375 6.3125 C-3.98716887 0.5111755 -3.98716887 0.5111755 0 0 Z " fill="#2F3030" transform="translate(226.4375,44.6875)"/>
<path d="M0 0 C2.5625 0.3125 2.5625 0.3125 4.375 1.625 C5.5625 3.3125 5.5625 3.3125 5.5625 6.3125 C1.9325 6.3125 -1.6975 6.3125 -5.4375 6.3125 C-3.98716887 0.5111755 -3.98716887 0.5111755 0 0 Z " fill="#3C3D3D" transform="translate(87.4375,44.6875)"/>
<path d="M0 0 C3.25 -0.3125 3.25 -0.3125 7 0 C9.4375 2.1875 9.4375 2.1875 11 5 C11 6.65 11 8.3 11 10 C6.38 10 1.76 10 -3 10 C-3 9.67 -3 9.34 -3 9 C0.63 9 4.26 9 8 9 C6.54711014 4.4158037 6.54711014 4.4158037 5 3 C3.00041636 2.95919217 0.99954746 2.95745644 -1 3 C-0.67 2.01 -0.34 1.02 0 0 Z " fill="#F6F6F6" transform="translate(224,43)"/>
<path d="M0 0 C3.25 -0.3125 3.25 -0.3125 7 0 C9.4375 2.1875 9.4375 2.1875 11 5 C11 6.65 11 8.3 11 10 C6.38 10 1.76 10 -3 10 C-3 9.67 -3 9.34 -3 9 C0.63 9 4.26 9 8 9 C6.54711014 4.4158037 6.54711014 4.4158037 5 3 C3.00041636 2.95919217 0.99954746 2.95745644 -1 3 C-0.67 2.01 -0.34 1.02 0 0 Z " fill="#F6F6F6" transform="translate(85,43)"/>
<path d="M0 0 C8.94390988 -0.78150669 8.94390988 -0.78150669 13.125 2.3125 C15 5 15 5 15 8 C14.01 8 13.02 8 12 8 C11.32517578 7.04867187 11.32517578 7.04867187 10.63671875 6.078125 C8.52504545 3.39695508 7.1313159 3.26721806 3.8125 2.75 C2.91144531 2.60046875 2.01039062 2.4509375 1.08203125 2.296875 C0.05142578 2.14992187 0.05142578 2.14992187 -1 2 C-0.67 1.34 -0.34 0.68 0 0 Z " fill="#F2F2F2" transform="translate(58,36)"/>
<path d="M0 0 C0.66 0.33 1.32 0.66 2 1 C1.67 3.31 1.34 5.62 1 8 C2.65 8.33 4.3 8.66 6 9 C6 9.66 6 10.32 6 11 C2.625 11.125 2.625 11.125 -1 11 C-3 9 -3 9 -3.3125 5.5 C-3.209375 4.345 -3.10625 3.19 -3 2 C-2.01 1.34 -1.02 0.68 0 0 Z " fill="#F8F8F8" transform="translate(170,52)"/>
<path d="M0 0 C1.21236328 0.02707031 1.21236328 0.02707031 2.44921875 0.0546875 C3.37154297 0.08949219 3.37154297 0.08949219 4.3125 0.125 C4.3125 0.455 4.3125 0.785 4.3125 1.125 C3.03375 1.2075 1.755 1.29 0.4375 1.375 C-1.75070212 1.59204158 -1.75070212 1.59204158 -3.6875 2.125 C-5.0044667 4.00870471 -5.0044667 4.00870471 -5.6875 6.125 C-7.6875 7.4375 -7.6875 7.4375 -9.6875 8.125 C-10.3475 7.795 -11.0075 7.465 -11.6875 7.125 C-8.17289536 2.51965599 -5.99655731 -0.17381326 0 0 Z " fill="#DCDCDC" transform="translate(61.6875,34.875)"/>
<path d="M0 0 C0.99 0 1.98 0 3 0 C2.4409112 3.24271506 1.5867822 4.93057424 -1 7 C-1.66 7 -2.32 7 -3 7 C-3 6.34 -3 5.68 -3 5 C-4.65 5 -6.3 5 -8 5 C-8 4.67 -8 4.34 -8 4 C-6.865625 3.71125 -5.73125 3.4225 -4.5625 3.125 C-3.386875 2.75375 -2.21125 2.3825 -1 2 C-0.67 1.34 -0.34 0.68 0 0 Z " fill="#D4D4D4" transform="translate(232,56)"/>
<path d="M0 0 C0.99 0 1.98 0 3 0 C2.4409112 3.24271506 1.5867822 4.93057424 -1 7 C-1.66 7 -2.32 7 -3 7 C-3 6.34 -3 5.68 -3 5 C-4.65 5 -6.3 5 -8 5 C-8 4.67 -8 4.34 -8 4 C-6.865625 3.71125 -5.73125 3.4225 -4.5625 3.125 C-3.386875 2.75375 -2.21125 2.3825 -1 2 C-0.67 1.34 -0.34 0.68 0 0 Z " fill="#D6D6D6" transform="translate(93,56)"/>
<path d="M0 0 C0.66 0.33 1.32 0.66 2 1 C1.52433594 1.84304687 1.52433594 1.84304687 1.0390625 2.703125 C-0.06874525 5.15196317 -0.38975399 7.08387855 -0.625 9.75 C-0.69976562 10.54921875 -0.77453125 11.3484375 -0.8515625 12.171875 C-0.90054688 12.77515625 -0.94953125 13.3784375 -1 14 C-1.33 14 -1.66 14 -2 14 C-2.22786458 11.98177083 -2.45572917 9.96354167 -2.68359375 7.9453125 C-2.91292961 5.92595684 -2.91292961 5.92595684 -4 4 C-2.68 2.68 -1.36 1.36 0 0 Z " fill="#D0D0D0" transform="translate(244,43)"/>
<path d="M0 0 C1.65 0 3.3 0 5 0 C5 0.66 5 1.32 5 2 C6.32 2 7.64 2 9 2 C8.67 3.32 8.34 4.64 8 6 C8 5.01 8 4.02 8 3 C3.545 3.495 3.545 3.495 -1 4 C-0.67 2.68 -0.34 1.36 0 0 Z " fill="#C4C4C4" transform="translate(172,51)"/>
<path d="M0 0 C1.4540625 0.0309375 1.4540625 0.0309375 2.9375 0.0625 C2.9375 1.0525 2.9375 2.0425 2.9375 3.0625 C0.6275 3.3925 -1.6825 3.7225 -4.0625 4.0625 C-4.0625 0.08290816 -4.0625 0.08290816 0 0 Z " fill="#F2F2F2" transform="translate(198.0625,42.9375)"/>
<path d="M0 0 C0.66 0.33 1.32 0.66 2 1 C0.6875 3.5 0.6875 3.5 -1 6 C-1.99 6 -2.98 6 -4 6 C-2.25 1.125 -2.25 1.125 0 0 Z " fill="#DCDCDC" transform="translate(171,43)"/>
<path d="M0 0 C0.66 0.33 1.32 0.66 2 1 C0.9024777 3.99324263 0.32317108 4.84610901 -2.625 6.25 C-3.40875 6.4975 -4.1925 6.745 -5 7 C-3.75023244 3.34683329 -3.32901247 2.21934164 0 0 Z " fill="#DDDDDD" transform="translate(83,43)"/>
<path d="M0 0 C0.66 0.66 1.32 1.32 2 2 C1.625 4.125 1.625 4.125 1 6 C0.34 5.67 -0.32 5.34 -1 5 C-2.99551782 4.64080679 -4.99548879 4.30503431 -7 4 C-7 3.67 -7 3.34 -7 3 C-5.5459375 2.814375 -5.5459375 2.814375 -4.0625 2.625 C-2.5465625 2.315625 -2.5465625 2.315625 -1 2 C-0.67 1.34 -0.34 0.68 0 0 Z " fill="#C2C2C2" transform="translate(253,57)"/>
<path d="M0 0 C0.66 0.33 1.32 0.66 2 1 C1.34 2.98 0.68 4.96 0 7 C-0.99 6.34 -1.98 5.68 -3 5 C-2.625 3.0625 -2.625 3.0625 -2 1 C-1.34 0.67 -0.68 0.34 0 0 Z " fill="#E9E9E9" transform="translate(170,52)"/>
</svg>
