<?xml version="1.0" encoding="UTF-8"?>
<svg version="1.1" xmlns="http://www.w3.org/2000/svg" width="367" height="98">
<path d="M0 0 C121.11 0 242.22 0 367 0 C367 32.34 367 64.68 367 98 C245.89 98 124.78 98 0 98 C0 65.66 0 33.32 0 0 Z " fill="#292929" transform="translate(0,0)"/>
<path d="M0 0 C121.11 0 242.22 0 367 0 C367 32.34 367 64.68 367 98 C245.89 98 124.78 98 0 98 C0 65.66 0 33.32 0 0 Z M2 2 C2 33.02 2 64.04 2 96 C121.79 96 241.58 96 365 96 C365 64.98 365 33.96 365 2 C245.21 2 125.42 2 2 2 Z " fill="#E35FAE" transform="translate(0,0)"/>
<path d="M0 0 C98.34 0 196.68 0 298 0 C297.67 0.66 297.34 1.32 297 2 C199.65 2 102.3 2 2 2 C2 33.02 2 64.04 2 96 C14.21 96 26.42 96 39 96 C39 96.66 39 97.32 39 98 C26.13 98 13.26 98 0 98 C0 65.66 0 33.32 0 0 Z " fill="#DE65B1" transform="translate(0,0)"/>
<path d="M0 0 C4.26796442 2.54741516 7.7796389 6.75849656 9.99609375 11.19140625 C10.73066961 18.34448917 10.29614507 24.27185508 5.99609375 30.19140625 C2.83178598 33.35571402 0.44393578 34.68308145 -4.00390625 35.19140625 C-4.49890625 30.24140625 -4.49890625 30.24140625 -5.00390625 25.19140625 C-4.03453125 24.90265625 -3.06515625 24.61390625 -2.06640625 24.31640625 C1.10273578 23.54925943 1.10273578 23.54925943 1.99609375 21.19140625 C2.15756632 16.34722927 1.95034507 11.96266287 0.99609375 7.19140625 C0.44824219 7.35253906 -0.09960938 7.51367188 -0.6640625 7.6796875 C-3.3099101 8.25832863 -5.73366745 8.36012859 -8.44140625 8.37890625 C-9.36824219 8.39308594 -10.29507813 8.40726563 -11.25 8.421875 C-14.18223998 8.17648187 -16.34252014 7.41342202 -19.00390625 6.19140625 C-18.98328125 7.03703125 -18.96265625 7.88265625 -18.94140625 8.75390625 C-19.00390625 12.19140625 -19.00390625 12.19140625 -19.62890625 15.81640625 C-20.01534066 19.2943159 -20.13116555 20.48398533 -18.00390625 23.19140625 C-15.47201977 24.94463562 -15.47201977 24.94463562 -13.00390625 26.19140625 C-13.33390625 27.18140625 -13.66390625 28.17140625 -14.00390625 29.19140625 C-16.17264877 28.68536633 -18.00358252 28.19156812 -20.00390625 27.19140625 C-18.33435806 30.41545603 -18.33435806 30.41545603 -15.37890625 30.87890625 C-14.59515625 30.98203125 -13.81140625 31.08515625 -13.00390625 31.19140625 C-13.00390625 32.51140625 -13.00390625 33.83140625 -13.00390625 35.19140625 C-16.29624919 35.19140625 -18.37932657 34.73322589 -20.890625 32.5546875 C-25.4136072 27.57656244 -27.62871961 23.56808597 -28.37890625 16.81640625 C-27.80922792 11.30951575 -26.16658414 7.20178288 -22.0625 3.38671875 C-15.03093192 -2.02616423 -8.43206839 -3.40241356 0 0 Z " fill="#F4F4F4" transform="translate(261.00390625,31.80859375)"/>
<path d="M0 0 C22.77 0 45.54 0 69 0 C69 32.34 69 64.68 69 98 C47.22 98 25.44 98 3 98 C3 97.34 3 96.68 3 96 C24.12 96 45.24 96 67 96 C67 64.98 67 33.96 67 2 C44.56 2 22.12 2 -1 2 C-0.67 1.34 -0.34 0.68 0 0 Z " fill="#FF0060" transform="translate(298,0)"/>
<path d="M0 0 C1.32 0 2.64 0 4 0 C4.33 2.97 4.66 5.94 5 9 C5.33 8.67 5.66 8.34 6 8 C13.22962963 7.40740741 13.22962963 7.40740741 16.4375 9.875 C19.33221184 13.81180811 19.37876922 17.22750777 19 22 C17.82986774 25.4203866 17.12689277 25.91540482 14 28 C12.02734375 28.1953125 12.02734375 28.1953125 9.9375 28.125 C7.95889157 28.06218703 5.97960521 28 4 28 C2.68 28 1.36 28 0 28 C0 18.76 0 9.52 0 0 Z " fill="#E0E0E0" transform="translate(193,35)"/>
<path d="M0 0 C10.23 0 20.46 0 31 0 C31 0.66 31 1.32 31 2 C21.43 2 11.86 2 2 2 C2 33.02 2 64.04 2 96 C14.21 96 26.42 96 39 96 C39 96.66 39 97.32 39 98 C26.13 98 13.26 98 0 98 C0 65.66 0 33.32 0 0 Z " fill="#07F8F4" transform="translate(0,0)"/>
<path d="M0 0 C3.5 1.6875 3.5 1.6875 6 4 C6.875 6.75 6.875 6.75 7 9 C6.01 9 5.02 9 4 9 C3.62875 8.360625 3.2575 7.72125 2.875 7.0625 C0.26690436 4.1935948 -2.01539892 4.19250099 -5.74609375 3.6875 C-8.1510867 3.84180907 -8.1510867 3.84180907 -10.25390625 5.625 C-12.44640085 8.60718505 -12.53673095 10.32690546 -12.5 14 C-12.5103125 15.03125 -12.520625 16.0625 -12.53125 17.125 C-11.86438193 20.73393309 -11.00366266 21.9113604 -8 24 C-4.95559865 24.48195275 -4.95559865 24.48195275 -1.75 24.25 C-0.13351563 24.19585937 -0.13351563 24.19585937 1.515625 24.140625 C2.33546875 24.09421875 3.1553125 24.0478125 4 24 C4 21.69 4 19.38 4 17 C1.03 17 -1.94 17 -5 17 C-4.67 15.68 -4.34 14.36 -4 13 C-0.04 13 3.92 13 8 13 C8.48828125 22.08203125 8.48828125 22.08203125 8 25 C4.52785756 28.0167795 1.50487895 28.40947611 -3 28.375 C-4.010625 28.38273437 -5.02125 28.39046875 -6.0625 28.3984375 C-9.41557586 27.943632 -11.28304797 26.98674153 -14 25 C-17.51333065 20.03287735 -17.87114662 14.88741945 -17 9 C-13.03748054 1.21647963 -8.55268656 -1.3317332 0 0 Z " fill="#E4E4E4" transform="translate(112,35)"/>
<path d="M0 0 C0.99 0 1.98 0 3 0 C3.33 2.97 3.66 5.94 4 9 C4.33 8.67 4.66 8.34 5 8 C12.39604466 7.52283583 12.39604466 7.52283583 14.60717773 9.26977539 C16.30330523 11.376779 16.35320167 12.34139267 16.29296875 15.01171875 C16.28330078 15.76904297 16.27363281 16.52636719 16.26367188 17.30664062 C16.23853516 18.09232422 16.21339844 18.87800781 16.1875 19.6875 C16.16719727 20.88342773 16.16719727 20.88342773 16.14648438 22.10351562 C16.11117089 24.06929967 16.05736447 26.03473582 16 28 C15.01 28 14.02 28 13 28 C12.67 22.39 12.34 16.78 12 11 C10.02 11 8.04 11 6 11 C3.57520264 14.63719605 3.61337423 16.85703482 3.375 21.1875 C3.30023438 22.45980469 3.22546875 23.73210938 3.1484375 25.04296875 C3.09945312 26.01878906 3.05046875 26.99460937 3 28 C2.01 28 1.02 28 0 28 C0 18.76 0 9.52 0 0 Z " fill="#FAFAFA" transform="translate(150,35)"/>
<path d="M0 0 C1.32 0 2.64 0 4 0 C4.33 5.28 4.66 10.56 5 16 C7.31 16 9.62 16 12 16 C13.4807848 13.0384304 13.35314037 10.16493705 13.5625 6.875 C13.64628906 5.59367187 13.73007813 4.31234375 13.81640625 2.9921875 C13.87699219 2.00476562 13.93757812 1.01734375 14 0 C14.99 0 15.98 0 17 0 C17 6.6 17 13.2 17 20 C15.68 19.67 14.36 19.34 13 19 C12.34 19.33 11.68 19.66 11 20 C7.625 20.375 7.625 20.375 4 20 C0.86303031 17.11243603 0.05252205 15.5068378 -0.390625 11.23046875 C-0.36431837 9.88225415 -0.31701804 8.53430482 -0.25 7.1875 C-0.23195312 6.49462891 -0.21390625 5.80175781 -0.1953125 5.08789062 C-0.14851064 3.39132336 -0.07677624 1.69547524 0 0 Z " fill="#E4E4E4" transform="translate(171,43)"/>
<path d="M0 0 C2.5 0.375 2.5 0.375 4.25 1.4375 C6.16503525 4.40580463 6.37924634 6.87314374 6.5 10.375 C5.375 13.25 5.375 13.25 3.5 15.375 C1.0625 16.4375 1.0625 16.4375 -1.5 16.375 C-3.8125 15 -3.8125 15 -5.5 12.375 C-5.99715888 9.30918692 -6.12332627 6.42424474 -5.5 3.375 C-3.66781531 1.03126517 -2.98604712 0.44790707 0 0 Z " fill="#2F2F2F" transform="translate(202.5,44.625)"/>
<path d="M0 0 C0.66 0 1.32 0 2 0 C2 1.98 2 3.96 2 6 C3.65 6 5.3 6 7 6 C7 6.99 7 7.98 7 9 C5.35 9 3.7 9 2 9 C2 13.62 2 18.24 2 23 C3.32 23 4.64 23 6 23 C6 23.99 6 24.98 6 26 C3.625 26.125 3.625 26.125 1 26 C-1 24 -1 24 -1.1953125 20.5234375 C-1.18201493 19.14049032 -1.15816232 17.75761346 -1.125 16.375 C-1.11597656 15.66859375 -1.10695312 14.9621875 -1.09765625 14.234375 C-1.07407603 12.48943902 -1.03820461 10.74467705 -1 9 C-2.32 9 -3.64 9 -5 9 C-5 8.01 -5 7.02 -5 6 C-3.68 6 -2.36 6 -1 6 C-1.020625 5.195625 -1.04125 4.39125 -1.0625 3.5625 C-1 1 -1 1 0 0 Z " fill="#EDEDED" transform="translate(139,37)"/>
<path d="M0 0 C3.96 0 7.92 0 12 0 C12.29296875 9.1796875 12.29296875 9.1796875 12 12 C8.77208445 14.1519437 7.71599191 14.20086443 4 14 C4.33 13.01 4.66 12.02 5 11 C5.99 11 6.98 11 8 11 C8 8.69 8 6.38 8 4 C5.03 4 2.06 4 -1 4 C-0.67 2.68 -0.34 1.36 0 0 Z " fill="#D3D3D3" transform="translate(108,48)"/>
<path d="M0 0 C7.36196319 -0.49079755 7.36196319 -0.49079755 10.4375 1.875 C13.33776586 5.81936157 13.36024279 9.22204297 13 14 C12.3125 16.375 12.3125 16.375 11 18 C8.375 19.25 8.375 19.25 6 20 C5.67 19.01 5.34 18.02 5 17 C5.99 16.34 6.98 15.68 8 15 C8.9999066 11.21463932 9.2944136 8.8464391 8 5.125 C5.23671293 2.18900749 2.92644911 2.22225184 -1 2 C-0.67 1.34 -0.34 0.68 0 0 Z " fill="#EAEAEA" transform="translate(199,43)"/>
<path d="M0 0 C7.52982573 -0.3703193 7.52982573 -0.3703193 9.609375 1.26757812 C11.30191723 3.37612442 11.35318217 4.34225724 11.29296875 7.01171875 C11.28330078 7.76904297 11.27363281 8.52636719 11.26367188 9.30664062 C11.23853516 10.09232422 11.21339844 10.87800781 11.1875 11.6875 C11.17396484 12.48478516 11.16042969 13.28207031 11.14648438 14.10351562 C11.11117089 16.06929967 11.05736447 18.03473582 11 20 C10.01 20 9.02 20 8 20 C7.67 14.39 7.34 8.78 7 3 C4.36 2.67 1.72 2.34 -1 2 C-0.67 1.34 -0.34 0.68 0 0 Z " fill="#EEEEEE" transform="translate(155,43)"/>
<path d="M0 0 C0.99 0 1.98 0 3 0 C3 6.6 3 13.2 3 20 C1.68 19.67 0.36 19.34 -1 19 C-1.99 19.33 -2.98 19.66 -4 20 C-4 19.34 -4 18.68 -4 18 C-5.32 17.67 -6.64 17.34 -8 17 C-7.030625 16.87625 -6.06125 16.7525 -5.0625 16.625 C-4.051875 16.41875 -3.04125 16.2125 -2 16 C-0.5192152 13.0384304 -0.64685963 10.16493705 -0.4375 6.875 C-0.35371094 5.59367187 -0.26992187 4.31234375 -0.18359375 2.9921875 C-0.09271484 1.51105469 -0.09271484 1.51105469 0 0 Z " fill="#F2F2F2" transform="translate(185,43)"/>
<path d="M0 0 C0.99 0 1.98 0 3 0 C3 6.6 3 13.2 3 20 C2.01 20 1.02 20 0 20 C0 13.4 0 6.8 0 0 Z " fill="#FBFBFB" transform="translate(126,43)"/>
<path d="M0 0 C8.94390988 -0.78150669 8.94390988 -0.78150669 13.125 2.3125 C15 5 15 5 15 8 C14.01 8 13.02 8 12 8 C11.32517578 7.04867187 11.32517578 7.04867187 10.63671875 6.078125 C8.52504545 3.39695508 7.1313159 3.26721806 3.8125 2.75 C2.91144531 2.60046875 2.01039062 2.4509375 1.08203125 2.296875 C0.05142578 2.14992187 0.05142578 2.14992187 -1 2 C-0.67 1.34 -0.34 0.68 0 0 Z " fill="#F1F1F1" transform="translate(104,36)"/>
<path d="M0 0 C1.21236328 0.02707031 1.21236328 0.02707031 2.44921875 0.0546875 C3.37154297 0.08949219 3.37154297 0.08949219 4.3125 0.125 C4.3125 0.455 4.3125 0.785 4.3125 1.125 C3.03375 1.2075 1.755 1.29 0.4375 1.375 C-1.75070212 1.59204158 -1.75070212 1.59204158 -3.6875 2.125 C-5.0044667 4.00870471 -5.0044667 4.00870471 -5.6875 6.125 C-7.6875 7.4375 -7.6875 7.4375 -9.6875 8.125 C-10.3475 7.795 -11.0075 7.465 -11.6875 7.125 C-8.17289536 2.51965599 -5.99655731 -0.17381326 0 0 Z " fill="#DCDCDC" transform="translate(107.6875,34.875)"/>
</svg>
